<svg width="52" height="46" viewBox="0 0 52 46" fill="none" xmlns="http://www.w3.org/2000/svg">
<rect width="52" height="46" fill="#F23207"/>
<path d="M7 36.1884V39.7443H44.825V33.26H7" stroke="white" stroke-width="2"/>
<ellipse cx="9.90957" cy="36.5022" rx="1.16385" ry="1.29686" fill="white"/>
<ellipse cx="42.4973" cy="36.5022" rx="1.16385" ry="1.29686" fill="white"/>
<path d="M7 25.9196V29.4755H44.825V22.9912H7" stroke="white" stroke-width="2"/>
<ellipse cx="9.90957" cy="26.2334" rx="1.16385" ry="1.29686" fill="white"/>
<ellipse cx="42.4973" cy="26.2334" rx="1.16385" ry="1.29686" fill="white"/>
<path d="M29.6949 22.3415C30.0592 20.237 31.4109 18.5499 32.6177 16.8361C33.7099 15.2852 34.7536 13.5104 35.6797 11.8566C36.5434 10.3142 37.5974 8.63208 38.6797 7.2405C38.8596 7.00926 39.1273 6.5338 39.3602 6.46728C39.6395 6.38748 39.6733 6.15177 39.855 5.98015C40.0719 5.77536 40.5441 5.86324 40.7984 5.609C41.2046 5.20273 41.789 4.81756 42.2984 4.5265C42.4824 4.42135 42.6211 4.21146 42.6386 4.00071C42.6615 3.72619 43.3766 3.74113 43.6129 3.62956C43.9595 3.46589 44.7479 2.86806 45.1439 3.02645C46.1117 3.41359 46.6748 4.21015 46.6748 5.29198C46.6748 7.0549 46.195 8.59298 45.8398 10.3102C45.5068 11.9196 44.9809 13.5397 44.3165 15.0345C44.0725 15.5836 44.0903 16.0366 43.6747 16.4959C43.3547 16.8497 43.182 17.3934 42.9788 17.8181C42.552 18.7105 41.9463 19.6046 41.3551 20.3929C40.7773 21.1634 39.8136 22.5014 39.02 22.8982" stroke="white" stroke-width="2" stroke-linecap="round" stroke-linejoin="round"/>
<path d="M38.6025 7.5885C38.97 7.99047 39.3831 8.58351 39.654 9.05762C39.9554 9.58502 40.3565 10.0452 40.52 10.6504C40.6718 11.2121 40.7341 12.7911 40.1334 13.1247C39.3539 13.5578 38.3251 13.8709 37.4581 13.6041C36.8792 13.426 36.5882 12.9836 36.0972 12.7381" stroke="white" stroke-width="2" stroke-linecap="round" stroke-linejoin="round"/>
<path d="M34.1487 15.3824C34.581 15.7901 35.167 16.0172 35.4322 16.5577C35.7181 17.1406 35.8188 17.6675 35.8188 18.3052C35.8188 19.0587 35.0235 19.0153 34.6435 19.4496C34.2277 19.9249 32.9569 19.648 32.4785 19.3491C32.1066 19.1166 31.7331 19.4587 31.5043 19.0011" stroke="white" stroke-width="2" stroke-linecap="round" stroke-linejoin="round"/>
<path d="M15.1461 18.0083C15.3615 16.9743 16.6183 15.5031 17.7905 15.5031C18.575 15.5031 19.1349 16.2134 19.5999 16.6783C19.7626 16.8411 20.1948 17.7704 20.2648 18.0083C20.4476 18.6296 20.5606 19.2306 20.8215 19.8176C20.9276 20.0562 21.1308 20.6715 21.1308 20.931C21.1308 21.6188 21.6187 22.2555 21.8267 22.8796" stroke="white" stroke-width="2" stroke-linecap="round" stroke-linejoin="round"/>
<path d="M14.8677 18.2866C15.494 19.1478 16.0195 20.0248 16.8472 20.7145C17.2402 21.042 17.4668 21.4397 17.8601 21.712C18.0474 21.8416 18.5452 22.162 18.6256 22.3228" stroke="white" stroke-width="2" stroke-linecap="round" stroke-linejoin="round"/>
<path d="M15.4245 16.199C13.8233 16.0989 12.448 15.3639 10.8315 15.3639" stroke="white" stroke-width="2" stroke-linecap="round" stroke-linejoin="round"/>
<path d="M15.7029 15.7815C14.8618 15.7815 14.9097 15.6556 14.3111 15.1938C13.7294 14.7451 13.4313 14.523 12.7415 14.3201C12.0298 14.1108 11.1542 14.2505 10.4141 14.2505" stroke="white" stroke-width="2" stroke-linecap="round" stroke-linejoin="round"/>
<path d="M15.007 15.503C14.5077 15.0037 13.9269 14.7013 13.4451 14.2195C13.2074 13.9818 12.907 13.4734 12.6409 13.3071C12.1822 13.0204 11.6444 12.558 11.2491 12.1627" stroke="white" stroke-width="2" stroke-linecap="round" stroke-linejoin="round"/>
<path d="M15.842 15.5031C14.9461 15.1316 14.2762 14.6503 14.0249 13.7711C13.8772 13.2538 13.8062 12.5803 14.5894 12.5803" stroke="white" stroke-width="2" stroke-linecap="round" stroke-linejoin="round"/>
<path d="M15.842 15.0856C15.9052 14.7619 15.9812 14.442 15.9812 14.1113" stroke="white" stroke-width="2" stroke-linecap="round" stroke-linejoin="round"/>
<circle cx="13.4843" cy="21.3721" r="1.08071" fill="white"/>
<circle cx="11.3228" cy="21.3721" r="1.08071" fill="white"/>
<circle cx="11.3228" cy="19.2107" r="1.08071" fill="white"/>
<circle cx="13.4843" cy="19.2107" r="1.08071" fill="white"/>
<circle cx="12.4036" cy="20.2914" r="1.08071" fill="white"/>
<circle cx="12.4036" cy="21.3721" r="1.08071" fill="white"/>
<circle cx="13.4843" cy="20.2914" r="1.08071" fill="white"/>
<circle cx="14.565" cy="20.2914" r="1.08071" fill="white"/>
<circle cx="22.6704" cy="19.7511" r="1.62107" fill="white" stroke="white" stroke-width="2"/>
<circle cx="26.9932" cy="19.7511" r="1.70178" fill="white" stroke="white" stroke-width="2"/>
<circle cx="24.2914" cy="15.9686" r="2.16143" fill="white" stroke="white" stroke-width="2"/>
<path d="M23.8548 13.8661C23.4344 13.2943 22.988 12.685 22.3249 12.3658C22.2155 12.3131 22.1918 12.1203 22.0473 12.1118C21.9154 12.104 21.8858 12.0218 21.7815 11.9523" stroke="white" stroke-width="2" stroke-linecap="round" stroke-linejoin="round"/>
<path d="M24.0676 13.2812C24.073 13.0521 24.1675 12.817 24.2802 12.6196C24.3845 12.4371 24.5783 12.3388 24.6524 12.1353C24.7389 11.8973 25.0122 11.6018 25.2371 11.5269" stroke="white" stroke-width="2" stroke-linecap="round" stroke-linejoin="round"/>
</svg>
